<svg xmlns="http://www.w3.org/2000/svg" width="1572" height="1572" viewBox="0 0 1572 1572">
  <defs>
    <style>
      .cls-1 {
        fill: #fff;
      }

      .cls-1, .cls-2 {
        fill-rule: evenodd;
      }
    </style>
  </defs>
  <path id="Výplň_barvou_1" data-name="Výplň barvou 1" class="cls-1" d="M562.592,582.515l52.979-91.762,340.977-.591L1128.26,786.753l-52.98,91.762,310.9,179.505,156.98-271.9L1164.55,129.9l-755.383.357,56.237,100.6,640.646,0.372,321.01,555.994-84.59-1.493L1064.05,303.967l-554.194-.111L402.377,490.015Z"/>
  <path id="Výplň_barvou_1_kopie" data-name="Výplň barvou 1 kopie" class="cls-2" d="M1011.41,989.141L958.429,1080.9l-340.977.59L445.742,784.9l52.979-91.763-310.9-179.5L30.839,785.537,409.452,1441.76l755.378-.36-56.23-100.59-640.648-.37-321.01-556,84.586,1.493L509.952,1267.69l554.188,0.11,107.48-186.16Z"/>
</svg>
